<mxfile host="app.diagrams.net" modified="2023-09-21T12:37:52.773Z" agent="Mozilla/5.0 (Macintosh; Intel Mac OS X 10_15_7) AppleWebKit/537.36 (KHTML, like Gecko) Chrome/116.0.0.0 Safari/537.36" etag="HutHxmBfPGGvOtqMqE6s" version="21.8.0" type="device">
  <diagram name="Page-1" id="mwG1_WEmA-LWEz-mJTqM">
    <mxGraphModel dx="2455" dy="2233" grid="1" gridSize="10" guides="1" tooltips="1" connect="1" arrows="1" fold="1" page="1" pageScale="1" pageWidth="827" pageHeight="1169" math="0" shadow="0">
      <root>
        <mxCell id="0" />
        <mxCell id="1" parent="0" />
        <mxCell id="2QPjshsw38jV6scYMA-w-3" style="edgeStyle=orthogonalEdgeStyle;rounded=0;orthogonalLoop=1;jettySize=auto;html=1;exitX=0.5;exitY=1;exitDx=0;exitDy=0;entryX=0.5;entryY=0;entryDx=0;entryDy=0;" parent="1" source="2QPjshsw38jV6scYMA-w-1" target="2QPjshsw38jV6scYMA-w-2" edge="1">
          <mxGeometry relative="1" as="geometry" />
        </mxCell>
        <mxCell id="2QPjshsw38jV6scYMA-w-1" value="1. welcome" style="rounded=1;whiteSpace=wrap;html=1;" parent="1" vertex="1">
          <mxGeometry x="340" y="-290" width="120" height="50" as="geometry" />
        </mxCell>
        <mxCell id="khJ21_UX8BpT8Y-34SBZ-1" style="edgeStyle=orthogonalEdgeStyle;rounded=0;orthogonalLoop=1;jettySize=auto;html=1;entryX=0.5;entryY=0;entryDx=0;entryDy=0;" edge="1" parent="1" source="2QPjshsw38jV6scYMA-w-2" target="2QPjshsw38jV6scYMA-w-5">
          <mxGeometry relative="1" as="geometry" />
        </mxCell>
        <mxCell id="2QPjshsw38jV6scYMA-w-2" value="answer" style="ellipse;whiteSpace=wrap;html=1;" parent="1" vertex="1">
          <mxGeometry x="340" y="-210" width="120" height="80" as="geometry" />
        </mxCell>
        <object label="no" id="2QPjshsw38jV6scYMA-w-14">
          <mxCell style="edgeStyle=orthogonalEdgeStyle;rounded=0;orthogonalLoop=1;jettySize=auto;html=1;exitX=1;exitY=0.5;exitDx=0;exitDy=0;" parent="1" source="2QPjshsw38jV6scYMA-w-5" target="2QPjshsw38jV6scYMA-w-12" edge="1">
            <mxGeometry relative="1" as="geometry" />
          </mxCell>
        </object>
        <mxCell id="2QPjshsw38jV6scYMA-w-111" value="yes" style="edgeStyle=orthogonalEdgeStyle;rounded=0;orthogonalLoop=1;jettySize=auto;html=1;exitX=0;exitY=0;exitDx=0;exitDy=0;" parent="1" source="2QPjshsw38jV6scYMA-w-5" target="2QPjshsw38jV6scYMA-w-110" edge="1">
          <mxGeometry relative="1" as="geometry">
            <Array as="points">
              <mxPoint x="373" y="170" />
              <mxPoint x="205" y="170" />
            </Array>
          </mxGeometry>
        </mxCell>
        <mxCell id="2QPjshsw38jV6scYMA-w-5" value="price range expressed?" style="rhombus;whiteSpace=wrap;html=1;" parent="1" vertex="1">
          <mxGeometry x="345" y="120" width="110" height="100" as="geometry" />
        </mxCell>
        <mxCell id="2QPjshsw38jV6scYMA-w-131" style="edgeStyle=orthogonalEdgeStyle;rounded=0;orthogonalLoop=1;jettySize=auto;html=1;exitX=1;exitY=0.5;exitDx=0;exitDy=0;entryX=1;entryY=0.5;entryDx=0;entryDy=0;" parent="1" source="2QPjshsw38jV6scYMA-w-12" target="2QPjshsw38jV6scYMA-w-22" edge="1">
          <mxGeometry relative="1" as="geometry">
            <Array as="points">
              <mxPoint x="720" y="170" />
              <mxPoint x="720" y="280" />
            </Array>
          </mxGeometry>
        </mxCell>
        <mxCell id="2QPjshsw38jV6scYMA-w-12" value="2. ask price range" style="rounded=1;whiteSpace=wrap;html=1;" parent="1" vertex="1">
          <mxGeometry x="590.0000000000001" y="140" width="120" height="60" as="geometry" />
        </mxCell>
        <mxCell id="khJ21_UX8BpT8Y-34SBZ-6" style="edgeStyle=orthogonalEdgeStyle;rounded=0;orthogonalLoop=1;jettySize=auto;html=1;entryX=0.5;entryY=0;entryDx=0;entryDy=0;exitX=0;exitY=0.5;exitDx=0;exitDy=0;" edge="1" parent="1" source="2QPjshsw38jV6scYMA-w-19" target="2QPjshsw38jV6scYMA-w-25">
          <mxGeometry relative="1" as="geometry" />
        </mxCell>
        <mxCell id="2QPjshsw38jV6scYMA-w-19" value="3. ask area" style="rounded=1;whiteSpace=wrap;html=1;" parent="1" vertex="1">
          <mxGeometry x="-30" y="20" width="120" height="60" as="geometry" />
        </mxCell>
        <mxCell id="khJ21_UX8BpT8Y-34SBZ-2" style="edgeStyle=orthogonalEdgeStyle;rounded=0;orthogonalLoop=1;jettySize=auto;html=1;entryX=0.5;entryY=1;entryDx=0;entryDy=0;" edge="1" parent="1" source="2QPjshsw38jV6scYMA-w-22" target="2QPjshsw38jV6scYMA-w-5">
          <mxGeometry relative="1" as="geometry" />
        </mxCell>
        <mxCell id="2QPjshsw38jV6scYMA-w-22" value="reply price range" style="ellipse;whiteSpace=wrap;html=1;" parent="1" vertex="1">
          <mxGeometry x="530" y="240" width="120" height="80" as="geometry" />
        </mxCell>
        <mxCell id="khJ21_UX8BpT8Y-34SBZ-8" style="edgeStyle=orthogonalEdgeStyle;rounded=0;orthogonalLoop=1;jettySize=auto;html=1;entryX=0;entryY=0.5;entryDx=0;entryDy=0;" edge="1" parent="1" source="2QPjshsw38jV6scYMA-w-25" target="2QPjshsw38jV6scYMA-w-110">
          <mxGeometry relative="1" as="geometry">
            <Array as="points">
              <mxPoint x="-40" y="170" />
            </Array>
          </mxGeometry>
        </mxCell>
        <mxCell id="2QPjshsw38jV6scYMA-w-25" value="reply area" style="ellipse;whiteSpace=wrap;html=1;" parent="1" vertex="1">
          <mxGeometry x="-140" y="135" width="120" height="80" as="geometry" />
        </mxCell>
        <mxCell id="2QPjshsw38jV6scYMA-w-125" style="edgeStyle=orthogonalEdgeStyle;rounded=0;orthogonalLoop=1;jettySize=auto;html=1;exitX=0;exitY=0.5;exitDx=0;exitDy=0;entryX=0.5;entryY=0;entryDx=0;entryDy=0;" parent="1" source="2QPjshsw38jV6scYMA-w-32" target="2QPjshsw38jV6scYMA-w-33" edge="1">
          <mxGeometry relative="1" as="geometry" />
        </mxCell>
        <mxCell id="2QPjshsw38jV6scYMA-w-32" value="4. ask food" style="rounded=1;whiteSpace=wrap;html=1;" parent="1" vertex="1">
          <mxGeometry x="-30" y="295" width="120" height="60" as="geometry" />
        </mxCell>
        <mxCell id="khJ21_UX8BpT8Y-34SBZ-10" style="edgeStyle=orthogonalEdgeStyle;rounded=0;orthogonalLoop=1;jettySize=auto;html=1;entryX=0.5;entryY=1;entryDx=0;entryDy=0;" edge="1" parent="1" source="2QPjshsw38jV6scYMA-w-33" target="2QPjshsw38jV6scYMA-w-117">
          <mxGeometry relative="1" as="geometry" />
        </mxCell>
        <mxCell id="2QPjshsw38jV6scYMA-w-33" value="reply food" style="ellipse;whiteSpace=wrap;html=1;" parent="1" vertex="1">
          <mxGeometry x="-140" y="410" width="120" height="80" as="geometry" />
        </mxCell>
        <mxCell id="2QPjshsw38jV6scYMA-w-42" value="5. suggest restaurant" style="rounded=1;whiteSpace=wrap;html=1;arcSize=22;" parent="1" vertex="1">
          <mxGeometry x="330" y="820" width="120" height="60" as="geometry" />
        </mxCell>
        <mxCell id="2QPjshsw38jV6scYMA-w-137" style="edgeStyle=orthogonalEdgeStyle;rounded=0;orthogonalLoop=1;jettySize=auto;html=1;exitX=0.5;exitY=1;exitDx=0;exitDy=0;entryX=0.5;entryY=0;entryDx=0;entryDy=0;" parent="1" source="2QPjshsw38jV6scYMA-w-44" target="2QPjshsw38jV6scYMA-w-50" edge="1">
          <mxGeometry relative="1" as="geometry" />
        </mxCell>
        <mxCell id="2QPjshsw38jV6scYMA-w-44" value="reply suggestion" style="ellipse;whiteSpace=wrap;html=1;" parent="1" vertex="1">
          <mxGeometry x="330" y="950" width="120" height="80" as="geometry" />
        </mxCell>
        <mxCell id="2QPjshsw38jV6scYMA-w-52" value="no" style="edgeStyle=orthogonalEdgeStyle;rounded=0;orthogonalLoop=1;jettySize=auto;html=1;exitX=0.5;exitY=1;exitDx=0;exitDy=0;entryX=0.5;entryY=0;entryDx=0;entryDy=0;" parent="1" source="2QPjshsw38jV6scYMA-w-50" target="khJ21_UX8BpT8Y-34SBZ-19" edge="1">
          <mxGeometry relative="1" as="geometry">
            <mxPoint x="390" y="1320" as="targetPoint" />
          </mxGeometry>
        </mxCell>
        <mxCell id="khJ21_UX8BpT8Y-34SBZ-18" value="yes" style="edgeStyle=orthogonalEdgeStyle;rounded=0;orthogonalLoop=1;jettySize=auto;html=1;entryX=1;entryY=0.5;entryDx=0;entryDy=0;exitX=1;exitY=0.5;exitDx=0;exitDy=0;" edge="1" parent="1" source="2QPjshsw38jV6scYMA-w-50" target="2QPjshsw38jV6scYMA-w-106">
          <mxGeometry relative="1" as="geometry">
            <Array as="points">
              <mxPoint x="660" y="1155" />
              <mxPoint x="660" y="690" />
            </Array>
          </mxGeometry>
        </mxCell>
        <mxCell id="2QPjshsw38jV6scYMA-w-50" value="alternative requested?" style="rhombus;whiteSpace=wrap;html=1;" parent="1" vertex="1">
          <mxGeometry x="345" y="1110" width="90" height="90" as="geometry" />
        </mxCell>
        <mxCell id="2QPjshsw38jV6scYMA-w-107" value="yes" style="edgeStyle=orthogonalEdgeStyle;rounded=0;orthogonalLoop=1;jettySize=auto;html=1;exitX=0.5;exitY=1;exitDx=0;exitDy=0;entryX=0.5;entryY=0;entryDx=0;entryDy=0;" parent="1" source="2QPjshsw38jV6scYMA-w-106" target="2QPjshsw38jV6scYMA-w-42" edge="1">
          <mxGeometry relative="1" as="geometry" />
        </mxCell>
        <mxCell id="khJ21_UX8BpT8Y-34SBZ-14" value="no" style="edgeStyle=orthogonalEdgeStyle;rounded=0;orthogonalLoop=1;jettySize=auto;html=1;entryX=0;entryY=0.5;entryDx=0;entryDy=0;" edge="1" parent="1" source="2QPjshsw38jV6scYMA-w-106" target="khJ21_UX8BpT8Y-34SBZ-13">
          <mxGeometry relative="1" as="geometry">
            <Array as="points">
              <mxPoint x="-380" y="690" />
              <mxPoint x="-380" y="-110" />
            </Array>
          </mxGeometry>
        </mxCell>
        <mxCell id="2QPjshsw38jV6scYMA-w-106" value="combo exists?" style="rhombus;whiteSpace=wrap;html=1;" parent="1" vertex="1">
          <mxGeometry x="340" y="640" width="100" height="100" as="geometry" />
        </mxCell>
        <mxCell id="2QPjshsw38jV6scYMA-w-118" value="yes&lt;br&gt;" style="edgeStyle=orthogonalEdgeStyle;rounded=0;orthogonalLoop=1;jettySize=auto;html=1;exitX=0.5;exitY=1;exitDx=0;exitDy=0;entryX=0.477;entryY=0.077;entryDx=0;entryDy=0;entryPerimeter=0;" parent="1" source="2QPjshsw38jV6scYMA-w-110" target="2QPjshsw38jV6scYMA-w-117" edge="1">
          <mxGeometry relative="1" as="geometry" />
        </mxCell>
        <mxCell id="khJ21_UX8BpT8Y-34SBZ-5" value="no" style="edgeStyle=orthogonalEdgeStyle;rounded=0;orthogonalLoop=1;jettySize=auto;html=1;entryX=1;entryY=0.5;entryDx=0;entryDy=0;" edge="1" parent="1" source="2QPjshsw38jV6scYMA-w-110" target="2QPjshsw38jV6scYMA-w-19">
          <mxGeometry relative="1" as="geometry">
            <Array as="points">
              <mxPoint x="220" y="50" />
            </Array>
          </mxGeometry>
        </mxCell>
        <mxCell id="2QPjshsw38jV6scYMA-w-110" value="area expressed?" style="rhombus;whiteSpace=wrap;html=1;" parent="1" vertex="1">
          <mxGeometry x="174.93" y="125" width="90" height="90" as="geometry" />
        </mxCell>
        <mxCell id="khJ21_UX8BpT8Y-34SBZ-9" value="no" style="edgeStyle=orthogonalEdgeStyle;rounded=0;orthogonalLoop=1;jettySize=auto;html=1;entryX=1;entryY=0.5;entryDx=0;entryDy=0;" edge="1" parent="1" source="2QPjshsw38jV6scYMA-w-117" target="2QPjshsw38jV6scYMA-w-32">
          <mxGeometry relative="1" as="geometry" />
        </mxCell>
        <mxCell id="khJ21_UX8BpT8Y-34SBZ-11" value="yes" style="edgeStyle=orthogonalEdgeStyle;rounded=0;orthogonalLoop=1;jettySize=auto;html=1;entryX=0.5;entryY=0;entryDx=0;entryDy=0;" edge="1" parent="1" source="2QPjshsw38jV6scYMA-w-117" target="2QPjshsw38jV6scYMA-w-106">
          <mxGeometry relative="1" as="geometry" />
        </mxCell>
        <mxCell id="2QPjshsw38jV6scYMA-w-117" value="food expressed?" style="rhombus;whiteSpace=wrap;html=1;" parent="1" vertex="1">
          <mxGeometry x="174.93" y="280" width="90" height="90" as="geometry" />
        </mxCell>
        <mxCell id="khJ21_UX8BpT8Y-34SBZ-15" style="edgeStyle=orthogonalEdgeStyle;rounded=0;orthogonalLoop=1;jettySize=auto;html=1;entryX=0.5;entryY=0;entryDx=0;entryDy=0;" edge="1" parent="1" source="khJ21_UX8BpT8Y-34SBZ-13" target="2QPjshsw38jV6scYMA-w-5">
          <mxGeometry relative="1" as="geometry">
            <Array as="points">
              <mxPoint x="-100" y="-20" />
              <mxPoint x="330" y="-20" />
              <mxPoint x="330" y="120" />
            </Array>
          </mxGeometry>
        </mxCell>
        <mxCell id="khJ21_UX8BpT8Y-34SBZ-13" value="(13?????). restart" style="rounded=1;whiteSpace=wrap;html=1;" vertex="1" parent="1">
          <mxGeometry x="-160" y="-140" width="120" height="60" as="geometry" />
        </mxCell>
        <mxCell id="khJ21_UX8BpT8Y-34SBZ-17" style="edgeStyle=orthogonalEdgeStyle;rounded=0;orthogonalLoop=1;jettySize=auto;html=1;entryX=0.5;entryY=0;entryDx=0;entryDy=0;" edge="1" parent="1" source="2QPjshsw38jV6scYMA-w-42" target="2QPjshsw38jV6scYMA-w-44">
          <mxGeometry relative="1" as="geometry" />
        </mxCell>
        <mxCell id="khJ21_UX8BpT8Y-34SBZ-22" value="yes" style="edgeStyle=orthogonalEdgeStyle;rounded=0;orthogonalLoop=1;jettySize=auto;html=1;entryX=1;entryY=0.5;entryDx=0;entryDy=0;" edge="1" parent="1" source="khJ21_UX8BpT8Y-34SBZ-19" target="khJ21_UX8BpT8Y-34SBZ-20">
          <mxGeometry relative="1" as="geometry">
            <Array as="points" />
          </mxGeometry>
        </mxCell>
        <mxCell id="khJ21_UX8BpT8Y-34SBZ-23" value="no" style="edgeStyle=orthogonalEdgeStyle;rounded=0;orthogonalLoop=1;jettySize=auto;html=1;" edge="1" parent="1" source="khJ21_UX8BpT8Y-34SBZ-19" target="khJ21_UX8BpT8Y-34SBZ-21">
          <mxGeometry relative="1" as="geometry" />
        </mxCell>
        <mxCell id="khJ21_UX8BpT8Y-34SBZ-19" value="request expressed?" style="rhombus;whiteSpace=wrap;html=1;" vertex="1" parent="1">
          <mxGeometry x="350" y="1300" width="80" height="80" as="geometry" />
        </mxCell>
        <mxCell id="khJ21_UX8BpT8Y-34SBZ-26" style="edgeStyle=orthogonalEdgeStyle;rounded=0;orthogonalLoop=1;jettySize=auto;html=1;" edge="1" parent="1" source="khJ21_UX8BpT8Y-34SBZ-20" target="khJ21_UX8BpT8Y-34SBZ-25">
          <mxGeometry relative="1" as="geometry" />
        </mxCell>
        <mxCell id="khJ21_UX8BpT8Y-34SBZ-20" value="6. give info" style="rounded=1;whiteSpace=wrap;html=1;" vertex="1" parent="1">
          <mxGeometry x="54.93" y="1310" width="120" height="60" as="geometry" />
        </mxCell>
        <mxCell id="khJ21_UX8BpT8Y-34SBZ-21" value="7. bye" style="rounded=1;whiteSpace=wrap;html=1;" vertex="1" parent="1">
          <mxGeometry x="530" y="1540" width="120" height="60" as="geometry" />
        </mxCell>
        <mxCell id="khJ21_UX8BpT8Y-34SBZ-27" style="edgeStyle=orthogonalEdgeStyle;rounded=0;orthogonalLoop=1;jettySize=auto;html=1;entryX=0.5;entryY=1;entryDx=0;entryDy=0;" edge="1" parent="1" source="khJ21_UX8BpT8Y-34SBZ-25" target="khJ21_UX8BpT8Y-34SBZ-19">
          <mxGeometry relative="1" as="geometry" />
        </mxCell>
        <mxCell id="khJ21_UX8BpT8Y-34SBZ-25" value="reply info" style="ellipse;whiteSpace=wrap;html=1;" vertex="1" parent="1">
          <mxGeometry x="54.93000000000001" y="1420" width="120" height="80" as="geometry" />
        </mxCell>
        <mxCell id="khJ21_UX8BpT8Y-34SBZ-28" value="*suggested restaurant is stored and will not be suggested again" style="text;html=1;strokeColor=none;fillColor=none;align=left;verticalAlign=middle;whiteSpace=wrap;rounded=0;fontSize=8;" vertex="1" parent="1">
          <mxGeometry x="430" y="1120" width="126" height="30" as="geometry" />
        </mxCell>
      </root>
    </mxGraphModel>
  </diagram>
</mxfile>
